<?xml version="1.0" encoding="utf-8"?>
<!-- Generator: Adobe Illustrator 19.0.0, SVG Export Plug-In . SVG Version: 6.00 Build 0)  -->
<svg version="1.1" id="图层_1" xmlns="http://www.w3.org/2000/svg" xmlns:xlink="http://www.w3.org/1999/xlink" x="0px" y="0px"
	 viewBox="9 -12 32 32" style="enable-background:new 9 -12 32 32;" xml:space="preserve">
<style type="text/css">
	.st0{fill:#126ee1;}
</style>
<g>
	<g>
		<path class="st0" d="M37,0.3v10.8L25,18l-12-6.9V-3.1L25-10l11.6,6.6l1.6-1.1L25-12L11-4v16l14,8l14-8V-1L37,0.3z M33,10V-1l-9-5
			v1.6L31,0v8.9L33,10z M29,12V1l-8-4v1.6L27,2v8.8L29,12z M17,9l8,5V3l-8-4V9z M19,2l4,2v6l-4-2V2z"/>
	</g>
</g>
</svg>
